<?xml version="1.0" encoding="iso-8859-1"?>
<!-- Generator: Adobe Illustrator 18.0.0, SVG Export Plug-In . SVG Version: 6.00 Build 0)  -->
<!DOCTYPE svg PUBLIC "-//W3C//DTD SVG 1.1//EN" "http://www.w3.org/Graphics/SVG/1.1/DTD/svg11.dtd">
<svg version="1.1" id="Capa_1" xmlns="http://www.w3.org/2000/svg" xmlns:xlink="http://www.w3.org/1999/xlink" x="0px" y="0px"
	 viewBox="0 0 430 430" style="enable-background:new 0 0 430 430;" xml:space="preserve">
<g>
	<circle cx="215" cy="265.11" r="40.122"/>
	<path d="M323.424,116.97c-4.114,0-8.213,0.235-12.277,0.703c-4.899-20.224-15.654-38.646-31.178-53.024
		c-19.752-18.294-45.464-28.37-72.4-28.37c-49.559,0-91.801,33.842-103.422,80.719C46.495,118.291,0,165.591,0,223.547
		c0,57.911,46.426,105.181,104.012,106.548l1.703,2.949c8.666,15.01,24.824,24.335,42.168,24.335c5.193,0,10.349-0.841,15.259-2.467
		c1.89,9.242,6.436,17.735,13.261,24.558c9.189,9.19,21.408,14.251,34.405,14.251h8.385c23.458,0,43.093-16.687,47.657-38.813
		c4.913,1.628,10.071,2.47,15.268,2.47c0.001,0,0.001,0,0.001,0c17.345,0,33.502-9.325,42.163-24.33l1.706-2.954
		C383.574,328.729,430,281.458,430,223.547C430,164.781,382.189,116.97,323.424,116.97z M311.156,315.787l-4.192,7.258
		c-7.912,13.707-25.44,18.404-39.147,10.49l-5.853-3.378c-4.391,3.177-9.116,5.915-14.113,8.163v6.746
		c0,15.828-12.831,28.656-28.658,28.656h-8.385c-15.826,0-28.658-12.829-28.657-28.658l-0.001-6.744
		c-4.997-2.248-9.722-4.986-14.113-8.161l-5.853,3.379c-13.707,7.912-31.234,3.215-39.147-10.492l-4.192-7.258
		c-7.912-13.707-3.218-31.234,10.492-39.148l5.832-3.368c-0.271-2.684-0.412-5.404-0.412-8.161c0-2.754,0.141-5.476,0.412-8.158
		l-5.833-3.368c-13.709-7.915-18.404-25.443-10.491-39.15l4.192-7.258c7.913-13.707,25.44-18.404,39.147-10.49l5.853,3.378
		c4.391-3.177,9.116-5.915,14.113-8.161v-6.746c0-15.827,12.831-28.658,28.658-28.658h8.385c15.827,0,28.658,12.831,28.658,28.658
		v6.746c4.997,2.246,9.722,4.984,14.113,8.161l5.853-3.378c13.707-7.915,31.234-3.217,39.147,10.49l4.192,7.258
		c7.913,13.707,3.216,31.236-10.492,39.148l-5.832,3.368c0.271,2.685,0.412,5.407,0.412,8.161c0,2.756-0.141,5.476-0.412,8.161
		l5.834,3.368C314.372,284.553,319.069,302.08,311.156,315.787z"/>
</g>
<g>
</g>
<g>
</g>
<g>
</g>
<g>
</g>
<g>
</g>
<g>
</g>
<g>
</g>
<g>
</g>
<g>
</g>
<g>
</g>
<g>
</g>
<g>
</g>
<g>
</g>
<g>
</g>
<g>
</g>
</svg>
