<?xml version="1.0" encoding="iso-8859-1"?>
<!-- Generator: Adobe Illustrator 18.0.0, SVG Export Plug-In . SVG Version: 6.00 Build 0)  -->
<!DOCTYPE svg PUBLIC "-//W3C//DTD SVG 1.1//EN" "http://www.w3.org/Graphics/SVG/1.1/DTD/svg11.dtd">
<svg version="1.1" id="Capa_1" xmlns="http://www.w3.org/2000/svg" xmlns:xlink="http://www.w3.org/1999/xlink" x="0px" y="0px"
	 viewBox="0 0 430 430" style="enable-background:new 0 0 430 430;" xml:space="preserve">
<g>
	<circle cx="160.832" cy="211.164" r="10.98"/>
	<path d="M323.424,133.621c-4.114,0-8.213,0.234-12.277,0.703c-4.898-20.225-15.654-38.647-31.178-53.025
		c-19.752-18.295-45.464-28.369-72.4-28.369c-49.559,0-91.801,33.842-103.422,80.719C46.495,134.941,0,182.242,0,240.197
		c0,58.77,47.811,106.58,106.576,106.58h3.65c1.931,17.021,16.411,30.293,33.939,30.293h141.668
		c17.528,0,32.009-13.272,33.939-30.293h3.65c58.766,0,106.576-47.811,106.576-106.58C430,181.432,382.19,133.621,323.424,133.621z
		 M300,342.9c0,7.824-6.342,14.17-14.166,14.17H144.166c-7.824,0-14.166-6.346-14.166-14.17v-21.15
		c0-7.824,6.342-14.168,14.166-14.168h141.668c7.824,0,14.166,6.344,14.166,14.168V342.9z M300,282.32
		c0,7.824-6.342,14.168-14.166,14.168H144.166c-7.824,0-14.166-6.344-14.166-14.168v-21.152c0-7.824,6.342-14.164,14.166-14.164
		h141.668c7.824,0,14.166,6.34,14.166,14.164V282.32z M300,221.74c0,7.824-6.342,14.168-14.166,14.168H144.166
		c-7.824,0-14.166-6.344-14.166-14.168v-21.15c0-7.824,6.342-14.17,14.166-14.17h141.668c7.824,0,14.166,6.346,14.166,14.17V221.74z
		"/>
	<circle cx="160.832" cy="332.328" r="10.981"/>
	<circle cx="160.832" cy="271.745" r="10.979"/>
</g>
<g>
</g>
<g>
</g>
<g>
</g>
<g>
</g>
<g>
</g>
<g>
</g>
<g>
</g>
<g>
</g>
<g>
</g>
<g>
</g>
<g>
</g>
<g>
</g>
<g>
</g>
<g>
</g>
<g>
</g>
</svg>
